<?xml version="1.0" encoding="utf-8"?>
<!-- Generator: Adobe Illustrator 17.0.1, SVG Export Plug-In . SVG Version: 6.00 Build 0)  -->
<!DOCTYPE svg PUBLIC "-//W3C//DTD SVG 1.1//EN" "http://www.w3.org/Graphics/SVG/1.1/DTD/svg11.dtd">
<svg version="1.1" id="Слой_1" xmlns="http://www.w3.org/2000/svg" xmlns:xlink="http://www.w3.org/1999/xlink" x="0px" y="0px"
	 width="96px" height="96px" viewBox="0 0 96 96" enable-background="new 0 0 96 96" xml:space="preserve">
<path opacity="0.4" fill="#D2D2D2" enable-background="new    " d="M88,49c0,29.633-10.363,40-40,40C18.365,89,8,78.633,8,49
	C8,19.365,18.365,9,48,9C77.637,9,88,19.365,88,49z"/>
<linearGradient id="SVGID_1_" gradientUnits="userSpaceOnUse" x1="14.5806" y1="-2175.8398" x2="14.5806" y2="-2095.8398" gradientTransform="matrix(1 0 0 -1 33.4194 -2087.8398)">
	<stop  offset="0" style="stop-color:#636363"/>
	<stop  offset="1" style="stop-color:#F5F5F5"/>
</linearGradient>
<path fill="url(#SVGID_1_)" d="M88,48c0,29.633-10.363,40-40,40C18.365,88,8,77.633,8,48C8,18.365,18.365,8,48,8
	C77.637,8,88,18.365,88,48z"/>
<path opacity="0.25" fill="#FFFFFF" enable-background="new    " d="M48,8C18.365,8,8,18.365,8,48c0,29.633,10.365,40,40,40
	c29.637,0,40-10.367,40-40C88,18.365,77.637,8,48,8z M48,87C18.842,87,9,77.158,9,48S18.842,9,48,9s39,9.842,39,39S77.158,87,48,87z
	"/>
<defs>
	<filter id="Adobe_OpacityMaskFilter" filterUnits="userSpaceOnUse" x="32.737" y="81.352" width="31.238" height="3.374">
		<feColorMatrix  type="matrix" values="1 0 0 0 0  0 1 0 0 0  0 0 1 0 0  0 0 0 1 0"/>
	</filter>
</defs>
<mask maskUnits="userSpaceOnUse" x="32.737" y="81.352" width="31.238" height="3.374" id="SVGID_2_">
	<g filter="url(#Adobe_OpacityMaskFilter)">
		
			<radialGradient id="SVGID_3_" cx="30.6427" cy="-3170.8181" r="18.898" gradientTransform="matrix(0.8262 0 0 -0.0893 23.039 -200.1151)" gradientUnits="userSpaceOnUse">
			<stop  offset="0" style="stop-color:#FFFFFF"/>
			<stop  offset="1" style="stop-color:#14130A"/>
		</radialGradient>
		<ellipse fill="url(#SVGID_3_)" cx="48.356" cy="83.039" rx="15.619" ry="1.687"/>
	</g>
</mask>
<linearGradient id="SVGID_4_" gradientUnits="userSpaceOnUse" x1="48.3608" y1="12.2783" x2="48.3512" y2="15.6213" gradientTransform="matrix(1 0 0 -1 0 97)">
	<stop  offset="0" style="stop-color:#4D4848;stop-opacity:0"/>
	<stop  offset="0.3539" style="stop-color:#14130A;stop-opacity:0.5"/>
	<stop  offset="1" style="stop-color:#14130A"/>
</linearGradient>
<ellipse opacity="0.6" mask="url(#SVGID_2_)" fill="url(#SVGID_4_)" enable-background="new    " cx="48.356" cy="83.039" rx="15.619" ry="1.687"/>
<g opacity="0.25">
	<g>
		<path d="M61.12,37.628c-0.988-1.757-1.529-2.657-3.132-4.29c-2.228-2.572-4.832-4.263-7.076-5.525l-0.174-0.098H38.745
			c-1.861,0.002-3.367,1.634-3.367,3.65v30.204c0,2.016,1.507,3.648,3.367,3.648h19.813c1.859,0,2.775-1.826,2.775-3.842V38.562
			L61.12,37.628z M57.41,33.941L57.41,33.941L57.41,33.941L57.41,33.941L57.41,33.941z"/>
	</g>
</g>
<g>
	
		<linearGradient id="SVGID_5_" gradientUnits="userSpaceOnUse" x1="48.3475" y1="68.634" x2="48.3475" y2="32.602" gradientTransform="matrix(1 0 0 -1 0 97)">
		<stop  offset="0" style="stop-color:#FFFFFF"/>
		<stop  offset="0.4837" style="stop-color:#FDFDFD"/>
		<stop  offset="0.7117" style="stop-color:#F5F6F6"/>
		<stop  offset="0.8856" style="stop-color:#E9E9EA"/>
		<stop  offset="1" style="stop-color:#DBDCDD"/>
	</linearGradient>
	<path fill="url(#SVGID_5_)" d="M57.654,33.761c-2.113-2.486-4.61-4.143-6.799-5.395H38.539c-1.403,0-2.541,1.255-2.541,2.801v30.43
		c0,1.547,1.138,2.801,2.541,2.801h19.617c1.403,0,2.541-1.254,2.541-2.801V37.763C59.859,36.387,58.866,35.013,57.654,33.761z"/>
</g>
<g>
	<path fill="#666565" d="M40.84,38.787v1.104h-1.152v-1.104H40.84z"/>
	<path fill="#666565" d="M47.096,36.184l-1.424,3.707h-0.98l-1.548-3.707v3.707h-1.152v-5.206h1.893l1.301,3.407l1.333-3.407h1.893
		v5.206h-1.317L47.096,36.184L47.096,36.184z"/>
	<path fill="#666565" d="M49.566,34.685h1.152v5.206h-1.152V34.685z"/>
	<path fill="#666565" d="M51.871,39.891v-5.206h5.268v1.104h-4.116v0.946h2.963v1.104h-2.963v2.051h-1.152V39.891z"/>
</g>
<path fill="#9C9C9C" d="M39.666,53.425c-1.578-1.499-2.261-3.673-1.825-5.816c0.073-0.357,0.316-0.47,0.418-0.502
	c0.22-0.069,0.463-0.002,0.656,0.181l2.833,2.692l2.604-0.77l0.636-2.64c0,0-2.747-2.61-2.748-2.612
	c-0.235-0.223-0.322-0.473-0.263-0.707c0.034-0.135,0.147-0.377,0.522-0.48c2.101-0.509,4.273,0.07,5.825,1.545
	c1.865,1.772,2.447,4.492,1.486,6.933c0.031,0.025,0.061,0.043,0.085,0.058l0.072,0.048c2.115,1.473,7.738,5.85,7.795,5.895
	c0.001,0.001,0.002,0.002,0.003,0.003c1.397,1.327,1.451,3.488,0.156,4.851c-1.296,1.364-3.459,1.419-4.823,0.123l-0.019-0.018
	l-6.435-7.636c-0.01,0.003-0.023,0.008-0.042,0.016C44.253,55.654,41.532,55.199,39.666,53.425L39.666,53.425z"/>
<linearGradient id="SVGID_6_" gradientUnits="userSpaceOnUse" x1="221.5723" y1="319.1725" x2="221.5009" y2="312.6535" gradientTransform="matrix(0.7249 0.6888 0.6888 -0.7249 -328.3828 129.1062)">
	<stop  offset="0" style="stop-color:#EDEDED"/>
	<stop  offset="0.497" style="stop-color:#DEDEDE"/>
	<stop  offset="1" style="stop-color:#ABABAB"/>
</linearGradient>
<path fill="url(#SVGID_6_)" d="M57.088,57.439c0,0-5.417-4.219-7.462-5.642c-0.134-0.094-0.474-0.251-0.321-0.64
	c0.823-2.076,0.407-4.528-1.309-6.158c-1.422-1.351-3.37-1.8-5.145-1.371c-0.364,0.1-0.048,0.355-0.048,0.355l2.83,2.689
	l-0.736,3.057l-3.016,0.891l-2.913-2.768c0,0-0.2-0.196-0.254,0.062c-0.369,1.818,0.172,3.778,1.615,5.15
	c1.694,1.609,4.134,1.941,6.137,1.029c0.392-0.181,0.576,0.088,0.576,0.088l6.174,7.327c1.123,1.067,2.901,1.023,3.969-0.102
	C58.258,60.283,58.211,58.506,57.088,57.439z M54.867,60.373c-0.34-0.323-0.354-0.861-0.031-1.202
	c0.323-0.34,0.861-0.354,1.202-0.031c0.34,0.323,0.354,0.861,0.031,1.202C55.746,60.682,55.208,60.696,54.867,60.373z"/>
<path id="path3310" fill-opacity="0.15" d="M32.334,82.74c-1.281,0-2.606-0.931-3.082-2.166l-1.686-4.365
	c-0.338-0.877-0.592-2.251-0.592-3.196V22.987c0-0.945,0.255-2.319,0.592-3.196l1.686-4.368c0.476-1.233,1.801-2.163,3.082-2.163
	h32.16c1.281,0,2.606,0.931,3.082,2.165l1.687,4.366c0.338,0.877,0.591,2.251,0.591,3.196v50.026c0,0.945-0.253,2.319-0.591,3.196
	l-1.687,4.368c-0.476,1.233-1.801,2.163-3.082,2.163H32.334z M39.704,74.402c-0.369,0-0.67,0.312-0.67,0.695s0.301,0.695,0.67,0.695
	h17.42c0.368,0,0.67-0.312,0.67-0.695c0-0.382-0.302-0.695-0.67-0.695H39.704z M63.154,67.454V24.377h-29.48v43.078L63.154,67.454
	L63.154,67.454z"/>
<path id="path3312" fill-opacity="0.3" d="M68.017,21.696l-1.686-4.368c-0.273-0.708-1.1-1.29-1.837-1.29h-32.16
	c-0.737,0-1.564,0.581-1.837,1.291l-1.686,4.368c-0.273,0.708-0.497,1.915-0.497,2.68v50.026c0,0.764,0.224,1.97,0.497,2.682
	l1.686,4.372c0.273,0.703,1.1,1.284,1.837,1.284h32.16c0.737,0,1.564-0.581,1.837-1.292l1.686-4.372
	c0.273-0.703,0.497-1.909,0.497-2.673V24.377C68.514,23.612,68.291,22.406,68.017,21.696z M57.124,78.571h-17.42
	c-1.11,0-2.01-0.933-2.01-2.084s0.9-2.084,2.01-2.084h17.42c1.11,0,2.01,0.933,2.01,2.084S58.234,78.571,57.124,78.571z
	 M64.494,70.234h-32.16V24.377h32.16V70.234z"/>
<linearGradient id="path3323_1_" gradientUnits="userSpaceOnUse" x1="585.1544" y1="-3884.3328" x2="585.1544" y2="-3817.6296" gradientTransform="matrix(1 0 0 -1 -536.7404 -3802.9817)">
	<stop  offset="0" style="stop-color:#D0CBC5"/>
	<stop  offset="0.5031" style="stop-color:#FAFCEF"/>
	<stop  offset="0.9693" style="stop-color:#FFFFFF"/>
	<stop  offset="1" style="stop-color:#FFFFFF"/>
</linearGradient>
<path id="path3323" fill="url(#path3323_1_)" d="M68.017,20.306l-1.686-4.368c-0.273-0.708-1.1-1.29-1.837-1.29h-32.16
	c-0.737,0-1.564,0.581-1.837,1.291l-1.686,4.368c-0.273,0.708-0.497,1.915-0.497,2.68v50.026c0,0.764,0.224,1.97,0.497,2.682
	l1.686,4.372c0.273,0.703,1.1,1.284,1.837,1.284h32.16c0.737,0,1.564-0.581,1.837-1.292l1.686-4.372
	c0.273-0.703,0.497-1.909,0.497-2.673V22.987C68.514,22.223,68.291,21.017,68.017,20.306z M57.124,77.182h-17.42
	c-1.11,0-2.01-0.933-2.01-2.084s0.9-2.084,2.01-2.084h17.42c1.11,0,2.01,0.933,2.01,2.084
	C59.134,76.248,58.234,77.182,57.124,77.182z M64.494,68.844h-32.16V22.987h32.16V68.844z"/>
<path id="path3325" fill="#FFFFFF" d="M32.334,70.234h32.16v-1.39h-32.16C32.334,68.844,32.334,70.234,32.334,70.234z
	 M57.124,77.182h-17.42c-0.874,0-1.609-0.582-1.887-1.39c-0.075,0.218-0.123,0.45-0.123,0.695c0,1.151,0.9,2.084,2.01,2.084h17.42
	c1.11,0,2.01-0.933,2.01-2.084c0-0.245-0.048-0.477-0.123-0.695C58.734,76.6,57.998,77.182,57.124,77.182z M68.017,20.306
	l-1.686-4.368c-0.273-0.708-1.1-1.29-1.837-1.29h-32.16c-0.737,0-1.564,0.581-1.837,1.291l-1.686,4.368
	c-0.273,0.708-0.497,1.915-0.497,2.68v1.39c0-0.764,0.224-1.97,0.497-2.681l1.686-4.368c0.273-0.708,1.1-1.29,1.837-1.29h32.16
	c0.737,0,1.564,0.581,1.837,1.291l1.686,4.368c0.273,0.708,0.497,1.915,0.497,2.68v-1.39C68.514,22.223,68.291,21.017,68.017,20.306
	z"/>
</svg>
